<svg width="375" height="667" viewBox="0 0 375 667" fill="none" xmlns="http://www.w3.org/2000/svg">
<g clip-path="url(#clip0)">
<rect width="375" height="667" fill="white"/>
<rect width="376" height="667" fill="#FF4630"/>
<path fill-rule="evenodd" clip-rule="evenodd" d="M182.764 298.566C182.764 301.376 185.042 303.654 187.851 303.654C190.662 303.654 192.942 301.376 192.942 298.566V276.089C192.942 273.278 190.664 271 187.851 271C185.043 271 182.764 273.278 182.764 276.089V298.566ZM229.979 342.374H232.036C244.251 342.374 254.187 350.126 254.183 359.656V363.605C254.183 373.701 249.453 377.894 243.868 379.64C242.84 388.802 235.048 395.951 225.616 395.951C216.615 395.951 209.119 389.44 207.552 380.889H171.381C169.813 389.442 162.317 395.951 153.318 395.951C144.024 395.951 136.337 389.01 135.125 380.039C128.954 378.578 123.59 374.571 123.59 363.605V359.658C123.59 350.129 133.526 342.375 145.738 342.374H148.24L153.961 329.604C156.012 324.976 160.838 314.091 173.696 314.091H204.524C216.102 314.091 220.294 321.083 224.223 329.534L229.979 342.374ZM144.247 377.655C144.247 382.551 148.213 386.513 153.101 386.513C157.991 386.513 161.957 382.551 161.955 377.655C161.955 372.762 157.993 368.802 153.101 368.802C148.21 368.802 144.247 372.762 144.247 377.655ZM160.322 342.374H183.141V325.12H173.696C169.391 325.12 167.042 327.3 164.033 334.094L160.322 342.374ZM194.169 325.12V342.374H217.899L214.197 334.112C210.508 326.189 208.909 325.12 204.523 325.12H194.169ZM216.538 377.655C216.538 382.551 220.504 386.513 225.394 386.513C230.285 386.513 234.246 382.553 234.246 377.658C234.246 372.767 230.286 368.805 225.394 368.805C220.501 368.805 216.538 372.762 216.538 377.655ZM157.538 308.166C155.603 308.166 153.753 307.057 152.902 305.179L143.356 284.126C142.195 281.567 143.327 278.551 145.888 277.391C148.446 276.232 151.464 277.364 152.624 279.924L162.172 300.975C163.331 303.534 162.197 306.552 159.637 307.711C158.955 308.021 158.24 308.166 157.538 308.166ZM134.143 321.319C135.05 321.984 136.104 322.306 137.149 322.306C138.715 322.306 140.259 321.584 141.255 320.224C142.917 317.957 142.429 314.772 140.163 313.11L121.1 299.127C118.834 297.464 115.649 297.958 113.987 300.219C112.324 302.486 112.812 305.672 115.079 307.333L134.143 321.319ZM217.367 308.166C216.663 308.166 215.95 308.02 215.267 307.712C212.708 306.552 211.573 303.534 212.736 300.977L222.281 279.925C223.443 277.364 226.457 276.23 229.018 277.392C231.578 278.553 232.713 281.57 231.549 284.127L222.002 305.18C221.153 307.057 219.302 308.166 217.367 308.166ZM234.742 320.226C235.74 321.586 237.285 322.306 238.85 322.306C239.894 322.306 240.95 321.984 241.857 321.321L260.92 307.336C263.187 305.675 263.676 302.491 262.015 300.224C260.35 297.957 257.168 297.468 254.901 299.13L235.835 313.113C233.57 314.775 233.079 317.96 234.742 320.226Z" fill="white"/>
</g>
<defs>
<clipPath id="clip0">
<rect width="375" height="667" fill="white"/>
</clipPath>
</defs>
</svg>
