<svg width="150" height="125" viewBox="0 0 150 125" fill="none" xmlns="http://www.w3.org/2000/svg">
<path fill-rule="evenodd" clip-rule="evenodd" d="M69.7635 27.5662C69.7635 30.3756 72.0418 32.6539 74.8513 32.6539C77.6622 32.6539 79.9419 30.3756 79.9419 27.5662V5.08918C79.9419 2.27831 77.6636 0 74.8513 0C72.0433 0 69.7635 2.27831 69.7635 5.08918V27.5662ZM116.979 71.3739H119.036C131.251 71.3739 141.187 79.1259 141.183 88.6563V92.6049C141.183 102.701 136.453 106.894 130.868 108.64C129.84 117.802 122.048 124.951 112.616 124.951C103.615 124.951 96.1194 118.44 94.5516 109.889H58.3805C56.8127 118.442 49.3171 124.951 40.3177 124.951C31.0236 124.951 23.3372 118.01 22.1254 109.039C15.954 107.578 10.59 103.571 10.59 92.6049V88.6578C10.59 79.1287 20.5263 71.3753 32.7381 71.3739H35.24L40.9614 58.6039C43.0119 53.9761 47.8376 43.0915 60.6958 43.0915H91.5243C103.102 43.0915 107.294 50.083 111.223 58.5342L116.979 71.3739ZM31.2472 106.655C31.2472 111.551 35.2129 115.513 40.1013 115.513C44.9911 115.513 48.9568 111.551 48.9554 106.655C48.9554 101.762 44.9926 97.8023 40.1013 97.8023C35.2101 97.8023 31.2472 101.762 31.2472 106.655ZM47.3221 71.3739H70.1409V54.1199H60.6958C56.3913 54.1199 54.0417 56.3 51.0329 63.0936L47.3221 71.3739ZM81.1693 54.1199V71.3739H104.899L101.197 63.1122C97.5077 55.1893 95.9086 54.1199 91.5229 54.1199H81.1693ZM103.538 106.655C103.538 111.551 107.504 115.513 112.394 115.513C117.285 115.513 121.246 111.553 121.246 106.658C121.246 101.767 117.286 97.8052 112.394 97.8052C107.501 97.8052 103.538 101.762 103.538 106.655ZM44.5383 37.1664C42.6032 37.1664 40.7535 36.0572 39.902 34.179L30.3558 13.1259C29.1953 10.5671 30.3273 7.55119 32.8876 6.39067C35.4464 5.23158 38.4638 6.36362 39.6243 8.92387L49.1718 29.9755C50.3309 32.5343 49.1975 35.5517 46.6372 36.7108C45.9552 37.0212 45.2403 37.1664 44.5383 37.1664ZM21.1429 50.3194C22.0499 50.9844 23.1037 51.3062 24.1488 51.3062C25.7152 51.3062 27.2587 50.5843 28.2555 49.2244C29.9172 46.9575 29.4288 43.7721 27.1633 42.1104L8.09953 28.1272C5.83403 26.464 2.64867 26.9582 0.986921 29.2194C-0.676248 31.4863 -0.187835 34.6717 2.07909 36.3334L21.1429 50.3194ZM104.367 37.1664C103.663 37.1664 102.95 37.0198 102.267 36.7122C99.7077 35.5517 98.5728 32.5343 99.7362 29.9769L109.281 8.9253C110.443 6.36362 113.457 5.23015 116.018 6.3921C118.578 7.55261 119.713 10.57 118.549 13.1274L109.002 34.1804C108.153 36.0572 106.302 37.1664 104.367 37.1664ZM121.742 49.2258C122.74 50.5857 124.285 51.3062 125.85 51.3062C126.894 51.3062 127.95 50.9844 128.857 50.3208L147.92 36.3363C150.187 34.6745 150.676 31.4906 149.015 29.2237C147.35 26.9567 144.168 26.4683 141.901 28.1301L122.835 42.1132C120.57 43.775 120.079 46.9603 121.742 49.2258Z" fill="#FF4630"/>
</svg>
